<?xml version="1.0" encoding="utf-8"?>
<!-- Generator: Adobe Illustrator 23.0.1, SVG Export Plug-In . SVG Version: 6.00 Build 0)  -->
<svg version="1.1" xmlns="http://www.w3.org/2000/svg" xmlns:xlink="http://www.w3.org/1999/xlink" x="0px" y="0px"
	 viewBox="0 0 286 21" style="enable-background:new 0 0 286 21;" xml:space="preserve">
<style type="text/css">
	.st0{display:none;}
	.st1{display:inline;fill:#F2F2F2;}
	.st2{display:inline;fill:#E6E6E6;}
	.st3{fill:#FFFFFF;}
	.st4{opacity:0.3;fill:#333333;}
	.st5{clip-path:url(#SVGID_4_);}
	.st6{fill:#333333;}
	.st7{clip-path:url(#SVGID_8_);}
	.st8{fill:#F2F2F2;}
	.st9{fill:#424143;}
	.st10{fill:none;stroke:#A4A3A3;stroke-width:1.042;stroke-miterlimit:10;}
	.st11{opacity:0.5;fill:#333333;}
	.st12{clip-path:url(#SVGID_12_);}
	.st13{opacity:0.85;}
	.st14{fill:none;stroke:#666666;stroke-width:2;stroke-miterlimit:10;}
	.st15{fill:#EC2024;}
	.st16{fill:#429CD6;}
	.st17{fill:#255699;}
	.st18{fill:#FF6600;}
	.st19{fill:#ADADAD;}
	.st20{clip-path:url(#SVGID_18_);}
	.st21{fill:url(#SVGID_19_);}
	.st22{clip-path:url(#SVGID_21_);}
	.st23{fill:none;stroke:#FFFFFF;stroke-width:0.8481;}
	.st24{fill:#CBCBCA;}
	.st25{fill:#673918;}
	.st26{fill:none;stroke:#CCCCCC;stroke-miterlimit:10;}
	.st27{clip-path:url(#SVGID_23_);}
	.st28{clip-path:url(#SVGID_27_);}
	.st29{clip-path:url(#SVGID_29_);}
	.st30{fill:none;stroke:#808080;stroke-width:1.0978;stroke-miterlimit:10;}
	.st31{clip-path:url(#SVGID_33_);}
	.st32{fill:none;stroke:#72BF44;stroke-miterlimit:10;}
	.st33{opacity:0.45;fill:#231F20;}
	.st34{fill:url(#SVGID_34_);}
	.st35{opacity:0.7;fill:#FFFFFF;}
	.st36{fill:none;stroke:#333333;stroke-width:0.8527;stroke-miterlimit:10;}
	.st37{fill:none;stroke:#FFFFFF;stroke-width:0.8572;stroke-miterlimit:10;}
	.st38{fill:#231F20;}
	.st39{fill:#F3C725;}
	.st40{fill:none;stroke:#FFFFFF;stroke-width:0.5218;stroke-miterlimit:10;}
	.st41{fill:#E55A4F;}
	.st42{fill:#8EB8C9;}
	.st43{fill:#B4BE35;}
	.st44{opacity:0.8;fill:#4F2E14;}
	.st45{fill:#FFD046;}
	.st46{fill:#E03A3E;}
	.st47{fill:#4F2800;}
	.st48{fill:none;stroke:#333333;stroke-width:3;stroke-linecap:round;stroke-miterlimit:10;}
	.st49{fill:none;stroke:#FFFFFF;stroke-miterlimit:10;}
	.st50{fill:none;stroke:#333333;stroke-width:3;stroke-miterlimit:10;}
	.st51{clip-path:url(#SVGID_38_);}
	.st52{fill:url(#SVGID_39_);}
	.st53{clip-path:url(#SVGID_41_);}
	.st54{fill:url(#SVGID_42_);}
	.st55{fill:none;stroke:#FFFFFF;stroke-width:3;stroke-linecap:round;stroke-miterlimit:10;}
	.st56{fill:none;stroke:#FFFFFF;stroke-width:3;stroke-miterlimit:10;}
	.st57{fill:none;stroke:#72BF44;stroke-width:1.4851;stroke-miterlimit:10;}
	.st58{opacity:0.41;fill:url(#);}
	.st59{clip-path:url(#SVGID_48_);}
	.st60{clip-path:url(#SVGID_50_);}
	.st61{fill:none;stroke:#666666;stroke-width:1.5368;stroke-miterlimit:10;}
	.st62{clip-path:url(#SVGID_52_);}
	.st63{clip-path:url(#SVGID_54_);}
	.st64{clip-path:url(#SVGID_56_);}
	.st65{fill:none;stroke:#FFFFFF;stroke-width:0.4751;stroke-miterlimit:10;}
	.st66{fill:none;stroke:#231F20;stroke-width:0.5218;stroke-miterlimit:10;}
	.st67{fill:none;}
	.st68{opacity:0.6;fill:#333333;}
	.st69{fill:none;stroke:#F04F33;stroke-width:2.3586;stroke-miterlimit:10;}
	.st70{fill:none;stroke:#FFFFFF;stroke-width:2;stroke-miterlimit:10;}
	.st71{clip-path:url(#SVGID_64_);}
	.st72{opacity:0.6;clip-path:url(#SVGID_66_);fill:#333333;}
	.st73{clip-path:url(#SVGID_64_);fill:none;stroke:#FFFFFF;stroke-width:2;stroke-miterlimit:10;}
	.st74{clip-path:url(#SVGID_64_);fill:none;}
	.st75{clip-path:url(#SVGID_68_);}
	.st76{clip-path:url(#SVGID_72_);}
	.st77{clip-path:url(#SVGID_78_);}
	.st78{fill:url(#SVGID_79_);}
	.st79{clip-path:url(#SVGID_81_);}
	.st80{clip-path:url(#SVGID_83_);}
	.st81{clip-path:url(#SVGID_87_);}
	.st82{clip-path:url(#SVGID_89_);}
	.st83{clip-path:url(#SVGID_93_);}
	.st84{fill:url(#SVGID_94_);}
	.st85{clip-path:url(#SVGID_98_);}
	.st86{clip-path:url(#SVGID_100_);}
	.st87{clip-path:url(#SVGID_102_);}
	.st88{clip-path:url(#SVGID_104_);}
	.st89{clip-path:url(#SVGID_106_);}
	.st90{clip-path:url(#SVGID_114_);}
	.st91{opacity:0.6;clip-path:url(#SVGID_116_);fill:#333333;}
	.st92{clip-path:url(#SVGID_114_);fill:none;stroke:#FFFFFF;stroke-width:2;stroke-miterlimit:10;}
	.st93{clip-path:url(#SVGID_114_);fill:none;}
	.st94{fill:#FFFFFF;stroke:#000000;stroke-miterlimit:10;}
	.st95{fill:none;stroke:#FFFFFF;stroke-width:0.4247;stroke-miterlimit:10;}
	.st96{fill:none;stroke:#231F20;stroke-width:0.4247;stroke-miterlimit:10;}
	.st97{fill:none;stroke:#231F20;stroke-width:0.4216;stroke-miterlimit:10;}
	.st98{fill:none;stroke:#FFFFFF;stroke-width:0.25;stroke-miterlimit:10;}
	.st99{fill:none;stroke:#FFFFFF;stroke-width:0.4216;stroke-miterlimit:10;}
	.st100{fill:none;stroke:#231F20;stroke-width:0.25;stroke-miterlimit:10;}
	.st101{fill:none;stroke:#231F20;stroke-width:0.4749;stroke-miterlimit:10;}
	.st102{fill:#FFFFFF;stroke:#000000;stroke-width:2.6061;stroke-miterlimit:10;}
	.st103{stroke:#FFFFFF;stroke-width:2.6061;stroke-miterlimit:10;}
	.st104{opacity:0.9;fill:#65391A;}
	.st105{fill:none;stroke:#FFFFFF;stroke-width:0.4589;stroke-miterlimit:10;}
	.st106{clip-path:url(#SVGID_118_);}
	.st107{fill:#4F2E14;}
	.st108{fill:#72BF44;}
	.st109{fill:#E6E6E6;}
	.st110{fill:none;stroke:#4F2E14;stroke-width:2;stroke-miterlimit:10;}
	.st111{fill:none;stroke:#F04F33;stroke-width:1.4503;stroke-miterlimit:10;}
	.st112{fill:none;stroke:#B3B3B3;stroke-miterlimit:10;}
	.st113{clip-path:url(#SVGID_128_);}
	.st114{clip-path:url(#SVGID_130_);}
	.st115{fill:none;stroke:#FFFFFF;stroke-width:2.0001;stroke-linecap:round;stroke-miterlimit:10;}
	.st116{fill:none;stroke:#FFFFFF;stroke-width:2.0001;stroke-linecap:round;stroke-linejoin:round;stroke-miterlimit:10;}
	.st117{clip-path:url(#SVGID_138_);}
	.st118{clip-path:url(#SVGID_140_);}
	.st119{clip-path:url(#SVGID_142_);}
	.st120{clip-path:url(#SVGID_146_);}
	.st121{fill:url(#SVGID_147_);}
	.st122{clip-path:url(#SVGID_149_);}
	.st123{fill:url(#SVGID_150_);}
	.st124{clip-path:url(#SVGID_154_);}
	.st125{clip-path:url(#SVGID_156_);}
	.st126{clip-path:url(#SVGID_158_);}
	.st127{clip-path:url(#SVGID_160_);}
	.st128{opacity:0.75;fill:#333333;}
	.st129{clip-path:url(#SVGID_162_);}
	.st130{clip-path:url(#SVGID_164_);}
	.st131{clip-path:url(#SVGID_166_);}
	.st132{clip-path:url(#SVGID_168_);}
	.st133{clip-path:url(#SVGID_176_);}
	.st134{clip-path:url(#SVGID_178_);}
	.st135{clip-path:url(#SVGID_182_);}
	.st136{fill:url(#SVGID_183_);}
	.st137{clip-path:url(#SVGID_185_);}
	.st138{fill:url(#SVGID_186_);}
	.st139{fill:#F7F9F6;}
	.st140{fill:#010600;}
	.st141{fill:#71BE44;}
	.st142{fill:#72BE44;}
	.st143{fill:#010500;}
	.st144{fill:#000600;}
	.st145{fill:#000500;}
	.st146{fill:#010601;}
	.st147{clip-path:url(#SVGID_194_);}
	.st148{clip-path:url(#SVGID_196_);}
	.st149{clip-path:url(#SVGID_198_);}
	.st150{clip-path:url(#SVGID_200_);}
	.st151{fill:none;stroke:#72BF44;stroke-width:1.5781;stroke-miterlimit:10;}
	.st152{clip-path:url(#SVGID_208_);}
	.st153{clip-path:url(#SVGID_210_);}
	.st154{clip-path:url(#SVGID_212_);}
	.st155{clip-path:url(#SVGID_214_);}
	.st156{clip-path:url(#SVGID_216_);}
	.st157{clip-path:url(#SVGID_218_);}
	.st158{fill:none;stroke:#72BF44;stroke-width:1.097;stroke-miterlimit:10;}
	.st159{fill:none;stroke:#65391A;stroke-miterlimit:10;}
	.st160{clip-path:url(#SVGID_220_);}
	.st161{clip-path:url(#SVGID_222_);}
	.st162{clip-path:url(#SVGID_224_);}
	.st163{clip-path:url(#SVGID_226_);}
	.st164{clip-path:url(#SVGID_230_);}
	.st165{fill:url(#SVGID_231_);}
	.st166{clip-path:url(#SVGID_233_);}
	.st167{fill:url(#SVGID_234_);}
	.st168{clip-path:url(#SVGID_244_);}
	.st169{clip-path:url(#SVGID_246_);}
</style>
<g id="Layer_2" class="st0">
</g>
<g id="Layer_3" class="st0">
</g>
<g id="Layer_1">
	<g>
		<g>
			<g>
				<path class="st3" d="M1.67,1.9v8.75c0,3.02,3.49,6.54,6.07,8.18c2.58-1.64,6.07-5.16,6.07-8.18V1.9H1.67z M13.45,10.65
					c0,2.78-3.28,6.14-5.71,7.75c-2.44-1.61-5.71-4.98-5.71-7.75V2.26h11.43V10.65z"/>
				<path class="st3" d="M6.12,15.48C5.61,15.21,5,15.02,4.35,15.06c0.12,0.14,0.24,0.29,0.37,0.43H6.12z"/>
				<path class="st3" d="M9.35,15.48h1.4c0.13-0.14,0.25-0.28,0.37-0.43C10.47,15.02,9.86,15.21,9.35,15.48z"/>
				<path class="st3" d="M11.72,10.63h-0.33v4.12c0.11-0.14,0.23-0.28,0.33-0.43V10.63z"/>
				<path class="st3" d="M4.09,10.63H3.76v3.69c0.11,0.14,0.22,0.29,0.33,0.43V10.63z"/>
				<path class="st3" d="M7.66,14.4h0.16v1.79c0.57-0.57,1.76-1.53,3.2-1.5v-4.7c-0.31-0.03-0.79-0.06-1.16-0.06
					c-1.32,0-1.87,0.52-1.87,0.53c0,0-0.15,0.16-0.15,0.73H7.63c0-0.57-0.15-0.73-0.15-0.73c-0.01-0.01-0.55-0.53-1.87-0.53
					c-0.37,0-0.85,0.04-1.16,0.06v4.7c1.45-0.03,2.63,0.93,3.2,1.5V14.4z M6.2,12.17c0-0.24,0.2-0.81,0.75-0.81
					c0.55,0,0.78,0.45,0.78,0.45s0.23-0.45,0.78-0.45c0.55,0,0.75,0.57,0.75,0.81c0,0.8-1.53,1.67-1.53,1.9
					C7.74,13.84,6.2,12.97,6.2,12.17z"/>
			</g>
			<g>
				<path class="st45" d="M13,9.36c0,0,0.22-0.3,0.22-0.63c0-0.48-0.57-1.22-1.43-1.22c-0.21,0-0.43,0.04-0.65,0.11l1.75-2.73
					l-2.86,1.79c0.03-0.37,0-0.72,0.23-0.96c0.23-0.24,0.72-0.22,0.72-0.22s-0.06-0.34-0.3-0.57C10.33,4.6,9.4,4.5,8.81,5.13
					C8.67,5.28,8.55,5.45,8.46,5.64L7.74,2.5L6.93,6.02C6.68,5.75,6.42,5.54,6.4,5.21C6.39,4.88,6.74,4.54,6.74,4.54
					S6.45,4.35,6.12,4.36c-0.48,0.03-1.19,0.63-1.14,1.5c0.01,0.21,0.06,0.41,0.13,0.61L2.58,4.89L4.51,7.9
					C4.04,7.89,3.62,8.06,3.29,7.82C3.02,7.63,3,7.13,3,7.13S2.65,7.25,2.45,7.52C2.17,7.91,2.2,8.84,2.91,9.34
					C3.25,9.58,3.68,9.7,4.09,9.77V9.66c0,0,0.56-0.06,1.1-0.09C5.2,9.51,5.21,9.45,5.22,9.39c-0.58,0.05-1.42,0.05-1.9-0.29
					C2.7,8.65,2.79,8.06,2.79,8.06s0.09,0.15,0.24,0.26c0.7,0.5,1.37-0.16,2.02,0.3c0.14,0.1,0.23,0.21,0.29,0.3
					C5.4,8.77,5.46,8.63,5.54,8.5L4,6.38l2.06,1.5c0.1-0.09,0.22-0.17,0.34-0.25C6.18,7.44,5.47,6.6,5.47,5.97
					c0-0.76,0.49-0.99,0.49-0.99S5.89,5.15,5.9,5.34c0.04,0.86,0.97,0.91,1.01,1.71C6.91,7.18,6.9,7.3,6.87,7.4
					c0.14-0.05,0.29-0.09,0.44-0.11l0.43-2.71l0.43,2.71c0.14,0.02,0.27,0.06,0.4,0.1C8.56,7,8.64,6.13,9.11,5.61
					c0.47-0.53,1.05-0.34,1.05-0.34s-0.17,0.07-0.29,0.2C9.27,6.09,9.88,6.83,9.33,7.41C9.24,7.5,9.15,7.57,9.06,7.62
					C9.19,7.7,9.31,7.78,9.42,7.88l2.06-1.5L9.93,8.5c0.07,0.11,0.13,0.23,0.17,0.35c0.3-0.31,0.87-0.79,1.54-0.79
					c0.76,0,1.04,0.56,1.04,0.56s-0.16-0.07-0.35-0.07c-0.86,0-1.04,0.92-1.83,0.92c-0.09,0-0.17-0.01-0.24-0.02
					c0.01,0.04,0.01,0.09,0.01,0.13c0.39,0.02,0.8,0.06,0.99,0.07c0.41-0.26,0.67-0.68,1.1-0.68C12.69,8.97,13,9.36,13,9.36z"/>
				<path class="st45" d="M11.38,10.35h0.61v3.57c0.73-1.08,1.22-2.21,1.22-3.27V9.91h-1.83V10.35z"/>
				<path class="st45" d="M2.26,10.65c0,1.06,0.49,2.19,1.22,3.27v-3.57h0.61V9.91H2.26V10.65z"/>
				<path class="st45" d="M7.74,10.19c0,0,0.13-0.13,0.42-0.28c0.33-0.16,0.85-0.34,1.63-0.35C9.66,8.54,8.79,7.74,7.74,7.74
					c-1.06,0-1.93,0.8-2.05,1.82c0.77,0.01,1.3,0.19,1.63,0.35C7.61,10.06,7.74,10.19,7.74,10.19z"/>
				<path class="st45" d="M7.74,16.81c0,0-0.45-0.56-1.16-1.05h-1.6c0.92,0.96,1.92,1.79,2.76,2.36c0.84-0.57,1.84-1.4,2.76-2.36
					H8.9C8.19,16.25,7.74,16.81,7.74,16.81z"/>
			</g>
			<path class="st46" d="M8.52,11.36c-0.55,0-0.78,0.45-0.78,0.45s-0.23-0.45-0.78-0.45c-0.55,0-0.75,0.57-0.75,0.81
				c0,0.8,1.53,1.67,1.53,1.9c0-0.23,1.53-1.1,1.53-1.9C9.27,11.93,9.07,11.36,8.52,11.36z"/>
			<g>
				<path class="st47" d="M1.31,10.65c0,3.36,4,7.12,6.43,8.6c2.42-1.48,6.43-5.24,6.43-8.6V1.55H1.31V10.65z M1.67,1.9h12.14v8.75
					c0,3.02-3.49,6.54-6.07,8.18c-2.58-1.64-6.07-5.16-6.07-8.18V1.9z"/>
				<path class="st47" d="M7.74,18.41c2.44-1.61,5.71-4.98,5.71-7.75V2.26H2.02v8.39C2.02,13.43,5.3,16.8,7.74,18.41z M10.75,15.48
					h-1.4c0.51-0.27,1.12-0.46,1.77-0.43C11,15.2,10.88,15.35,10.75,15.48z M7.66,14.4v1.79c-0.57-0.57-1.76-1.53-3.2-1.5v-4.7
					c0.31-0.03,0.79-0.06,1.16-0.06c1.32,0,1.87,0.52,1.87,0.53c0,0,0.15,0.16,0.15,0.73h0.21c0-0.57,0.15-0.73,0.15-0.73
					C8,10.44,8.55,9.92,9.86,9.92c0.37,0,0.85,0.04,1.16,0.06v4.7c-1.45-0.03-2.63,0.93-3.2,1.5V14.4H7.66z M5.69,9.56
					c0.12-1.03,0.99-1.82,2.05-1.82c1.06,0,1.93,0.8,2.05,1.82c-0.77,0.01-1.3,0.19-1.63,0.35c-0.29,0.14-0.42,0.28-0.42,0.28
					s-0.13-0.13-0.42-0.28C6.99,9.75,6.46,9.57,5.69,9.56z M11.72,14.32c-0.11,0.14-0.22,0.29-0.33,0.43v-4.12h0.33V14.32z
					 M13.21,10.65c0,1.06-0.49,2.19-1.22,3.27v-3.57h-0.61V9.91h1.83V10.65z M2.45,7.52C2.65,7.25,3,7.13,3,7.13s0.02,0.5,0.29,0.69
					C3.62,8.06,4.04,7.89,4.51,7.9L2.58,4.89l2.53,1.58c-0.07-0.2-0.12-0.41-0.13-0.61c-0.04-0.87,0.66-1.47,1.14-1.5
					c0.33-0.02,0.62,0.18,0.62,0.18S6.39,4.88,6.4,5.21c0.02,0.33,0.28,0.54,0.52,0.81L7.74,2.5l0.72,3.14
					c0.09-0.19,0.21-0.36,0.35-0.51c0.6-0.63,1.52-0.53,1.87-0.2c0.24,0.23,0.3,0.57,0.3,0.57s-0.49-0.02-0.72,0.22
					c-0.23,0.24-0.2,0.59-0.23,0.96l2.86-1.79l-1.75,2.73c0.21-0.07,0.43-0.11,0.65-0.11c0.87,0,1.43,0.73,1.43,1.22
					c0,0.33-0.22,0.63-0.22,0.63s-0.31-0.39-0.64-0.39c-0.42,0-0.68,0.41-1.1,0.68c-0.19-0.02-0.6-0.06-0.99-0.07
					c0-0.04,0-0.09-0.01-0.13c0.07,0.01,0.15,0.02,0.24,0.02c0.79,0,0.97-0.92,1.83-0.92c0.19,0,0.35,0.07,0.35,0.07
					s-0.28-0.56-1.04-0.56c-0.67,0-1.24,0.48-1.54,0.79C10.06,8.73,10,8.61,9.93,8.5l1.54-2.12l-2.06,1.5
					C9.31,7.78,9.19,7.7,9.06,7.62C9.15,7.57,9.24,7.5,9.33,7.41c0.55-0.58-0.07-1.31,0.53-1.94c0.13-0.14,0.29-0.2,0.29-0.2
					S9.58,5.08,9.11,5.61C8.64,6.13,8.56,7,8.57,7.39c-0.13-0.04-0.26-0.08-0.4-0.1L7.74,4.58L7.31,7.29
					C7.16,7.31,7.01,7.35,6.87,7.4C6.9,7.3,6.91,7.18,6.91,7.04C6.87,6.25,5.94,6.19,5.9,5.34C5.89,5.15,5.96,4.98,5.96,4.98
					S5.47,5.21,5.47,5.97c0,0.63,0.71,1.47,0.92,1.66C6.27,7.71,6.16,7.79,6.06,7.88L4,6.38L5.54,8.5C5.46,8.63,5.4,8.77,5.34,8.92
					c-0.06-0.09-0.16-0.2-0.29-0.3c-0.65-0.46-1.32,0.2-2.02-0.3C2.88,8.21,2.79,8.06,2.79,8.06S2.7,8.65,3.32,9.09
					c0.47,0.34,1.32,0.35,1.9,0.29C5.21,9.45,5.2,9.51,5.19,9.57c-0.54,0.03-1.1,0.09-1.1,0.09v0.11C3.68,9.7,3.25,9.58,2.91,9.34
					C2.2,8.84,2.17,7.91,2.45,7.52z M3.48,13.93c-0.73-1.08-1.22-2.21-1.22-3.27V9.91h1.83v0.44H3.48V13.93z M3.76,10.63h0.33v4.12
					c-0.11-0.14-0.23-0.28-0.33-0.43V10.63z M4.35,15.06c0.65-0.04,1.26,0.15,1.77,0.43h-1.4C4.59,15.35,4.47,15.2,4.35,15.06z
					 M6.57,15.76c0.71,0.49,1.16,1.05,1.16,1.05s0.45-0.56,1.16-1.05h1.6c-0.92,0.96-1.92,1.79-2.76,2.36
					c-0.84-0.57-1.84-1.4-2.76-2.36H6.57z"/>
			</g>
		</g>
		<path class="st3" d="M35.26,15.1h-0.98c-0.73,2.78-1,2.93-2.44,2.93h-5.31c-0.71,0-0.85-0.12-0.85-1.13V4.24
			c0-1.72,0.11-1.85,1.99-1.85V1.62h-6.09v0.77c1.85,0,2.01,0.14,2.01,1.83v12.13c0,1.74-0.16,1.88-2.01,1.88v0.77h12.75L35.26,15.1
			z"/>
		<path class="st3" d="M47.22,18.03h-5.49c-0.51,0-0.71-0.11-0.71-1.04v-6.55h4.07c1.1,0,1.28,0.16,1.28,2.44h0.95v-5.8h-0.95
			c0,2.17-0.17,2.39-1.27,2.39h-4.08V3.75c0-1.01,0.08-1.16,0.91-1.16h4.58c1.34,0,1.59,0.07,2.25,2.76h0.97l-0.79-3.74H36.91v0.77
			c1.86,0,2.02,0.14,2.02,1.83V16.4c0,1.69-0.16,1.83-2.01,1.83v0.77h12.77l0.88-3.81H49.6C48.91,17.89,48.66,18.03,47.22,18.03z"/>
		<path class="st3" d="M65.25,2.39c1.77,0,1.9,0.13,1.9,1.82v5.26h-10.7V4.2c0-1.68,0.13-1.81,1.9-1.81V1.62h-6.04v0.77
			c1.9,0,2.05,0.14,2.05,1.83v12.19c0,1.69-0.14,1.83-2.05,1.83v0.77h6.04v-0.77c-1.77,0-1.9-0.13-1.9-1.81v-5.98h10.7v5.98
			c0,1.68-0.13,1.81-1.9,1.81v0.77h6.03v-0.77c-1.9,0-2.05-0.14-2.05-1.83V4.22c0-1.69,0.15-1.83,2.05-1.83V1.62h-6.03V2.39z"/>
		<path class="st3" d="M78.03,16.41V4.22c0-1.69,0.12-1.83,2.32-1.83V1.62h-6.72v0.77c2.2,0,2.32,0.14,2.32,1.83v12.19
			c0,1.69-0.12,1.83-2.33,1.83v0.77h6.73v-0.77C78.15,18.24,78.03,18.1,78.03,16.41z"/>
		<path class="st3" d="M92.71,13.09c2.35,0,2.46,0.14,2.46,1.36v2.44c-0.53,0.41-1.17,0.78-1.86,1.03c-0.7,0.26-1.49,0.41-2.3,0.41
			c-1.9,0-3.53-0.76-4.73-2.05c-1.3-1.44-2.05-3.61-2.05-6.09c0-2.43,0.74-4.48,2-5.87c1.23-1.33,2.99-2.11,5.02-2.11
			c1.59,0,2.69,0.35,3.27,0.79c0.8,0.58,1.16,1.57,1.52,3.23l0.95-0.2c-0.33-1.56-0.5-2.47-0.7-3.8c-0.71-0.26-1.42-0.49-2.13-0.64
			c-0.97-0.2-1.89-0.31-2.72-0.31c-2.95,0-5.18,0.85-6.77,2.32c-1.69,1.58-2.63,3.9-2.63,6.69c0,3.04,1.03,5.39,2.68,6.9
			c1.58,1.44,3.72,2.17,6.04,2.17c1.27,0,2.44-0.25,3.47-0.63c1.16-0.44,2.13-1.02,2.85-1.64v-2.75c0-1.13,0.09-1.23,1.91-1.23
			v-0.77h-6.28V13.09z"/>
		<path class="st3" d="M113.79,18.24v0.77h6.03v-0.77c-1.9,0-2.05-0.14-2.05-1.83V4.22c0-1.69,0.15-1.83,2.05-1.83V1.62h-6.03v0.77
			c1.77,0,1.9,0.13,1.9,1.82v5.26h-10.7V4.2c0-1.68,0.13-1.81,1.9-1.81V1.62h-6.03v0.77c1.9,0,2.05,0.14,2.05,1.83v12.19
			c0,1.69-0.14,1.83-2.05,1.83v0.77h6.03v-0.77c-1.77,0-1.9-0.13-1.9-1.81v-5.98h10.7v5.98C115.69,18.1,115.56,18.24,113.79,18.24z"
			/>
		<path class="st3" d="M142.64,2.4c1.77,0,1.95,0.11,1.95,1.78v8.44c0,1.51-0.22,2.98-1.34,4.02c-0.84,0.82-2.18,1.23-3.79,1.23
			c-1.79,0-3.02-0.38-3.83-1.09c-1.13-0.93-1.47-2.36-1.47-4.27V4.18c0-1.68,0.09-1.78,1.95-1.78V1.65h-5.94V2.4
			c1.78,0,1.9,0.11,1.9,1.78v8.45c0,2.3,0.5,4.02,2,5.09c1.17,0.85,2.89,1.23,5.03,1.23c2.03,0,3.65-0.46,4.8-1.45
			c1.12-0.98,1.78-2.45,1.78-4.63v-8.7c0-1.65,0.14-1.78,1.86-1.78V1.65h-4.9V2.4z"/>
		<path class="st3" d="M162.67,2.4c1.88,0,2.08,0.11,2.08,1.78v11.98h-0.05L153.2,1.65h-4.08V2.4c1.9,0,2.02,0.1,2.02,1.77v11.92
			c0,1.66-0.17,1.78-1.99,1.78v0.75h5.06v-0.75c-1.81,0-2-0.12-2-1.78V3.42h0.05l12.33,15.4h1.22V4.18c0-1.67,0.18-1.78,1.97-1.78
			V1.65h-5.11V2.4z"/>
		<path class="st3" d="M174.85,16.09V4.19c0-1.65,0.11-1.78,2.27-1.78V1.65h-6.57V2.4c2.15,0,2.27,0.13,2.27,1.78v11.91
			c0,1.65-0.11,1.78-2.27,1.78v0.75h6.57v-0.75C174.97,17.87,174.85,17.74,174.85,16.09z"/>
		<path class="st3" d="M191.82,2.4c1.45,0,1.69,0.27,1.14,1.76l-4.77,12.34h-0.07l-5-12.35c-0.55-1.4-0.38-1.74,1.24-1.74V1.65
			h-5.32V2.4c1.13,0,1.27,0.19,1.87,1.64l6.15,14.91h1.25l5.96-15.23c0.44-1.1,0.64-1.33,1.68-1.33V1.65h-4.12V2.4z"/>
		<path class="st3" d="M207.61,17.67h-5.36c-0.49,0-0.69-0.11-0.69-1.01v-6.39h3.97c1.08,0,1.25,0.15,1.25,2.38h0.93V6.98h-0.93
			c0,2.12-0.17,2.33-1.23,2.33h-3.98V3.73c0-0.99,0.08-1.13,0.89-1.13h4.48c1.3,0,1.55,0.07,2.2,2.7h0.95l-0.77-3.65h-11.75V2.4
			c1.81,0,1.98,0.13,1.98,1.79v11.89c0,1.66-0.16,1.79-1.96,1.79v0.75h12.46l0.86-3.72h-0.95
			C209.26,17.54,209.02,17.67,207.61,17.67z"/>
		<path class="st3" d="M225.98,16.25l-3.98-5.73c1.51-0.19,2.79-0.78,3.54-1.44c0.97-0.86,1.43-1.97,1.43-3.1
			c0-1.38-0.61-2.47-1.75-3.21c-1.27-0.84-2.72-1.12-5.14-1.12h-6.77V2.4c1.82,0,1.97,0.13,1.97,1.8v11.87
			c0,1.66-0.15,1.79-1.97,1.79v0.75h6v-0.75c-1.89,0-2-0.11-2-1.78v-5.32h2.66l5.27,7.86h3.38v-0.75
			C227.37,17.87,227,17.7,225.98,16.25z M219.48,9.81h-2.18V4.02c0-1.22,0.05-1.42,0.67-1.42H220c1.82,0,2.93,0.36,3.66,0.92
			c0.82,0.62,1.17,1.53,1.17,2.46c0,1.11-0.32,2.04-1.22,2.76C222.73,9.44,221.4,9.81,219.48,9.81z"/>
		<path class="st3" d="M235.87,8.71c-1.48-0.87-2.32-1.38-2.89-1.98c-0.51-0.57-0.73-1.19-0.73-1.83c0-0.71,0.26-1.29,0.78-1.76
			c0.61-0.53,1.52-0.87,2.61-0.87c2.55,0,3.1,0.8,3.6,3.27l0.93-0.19c-0.21-1.15-0.43-2.45-0.55-3.4c-1.13-0.42-2.35-0.63-3.87-0.63
			c-1.81,0-3.1,0.45-3.97,1.12c-0.98,0.78-1.43,1.82-1.43,2.86c0,0.89,0.3,1.68,0.72,2.33c0.79,1.11,2.46,1.89,3.94,2.82
			c1.37,0.74,2.48,1.35,3.21,2.19c0.47,0.62,0.72,1.2,0.72,2.09c0,1.03-0.44,1.86-1.11,2.41c-0.68,0.56-1.63,0.86-2.65,0.86
			c-2.34,0-3.59-0.74-4.34-3.63l-0.93,0.24c0.29,1.03,0.56,2.1,0.74,3.59c1.35,0.46,2.94,0.75,4.34,0.75c2.1,0,3.63-0.62,4.61-1.52
			c0.87-0.82,1.33-1.93,1.33-3.16c0-1.2-0.42-2.09-1.01-2.85C238.99,10.34,237.73,9.79,235.87,8.71z"/>
		<path class="st3" d="M248.45,16.09V4.19c0-1.65,0.11-1.78,2.26-1.78V1.65h-6.56V2.4c2.15,0,2.26,0.13,2.26,1.78v11.91
			c0,1.65-0.11,1.78-2.27,1.78v0.75h6.58v-0.75C248.56,17.87,248.45,17.74,248.45,16.09z"/>
		<path class="st3" d="M252.82,1.65l-0.56,3.85h0.87c0.5-2.72,0.68-2.84,2.09-2.84h3.21v13.43c0,1.66-0.1,1.79-2.27,1.79v0.74h6.58
			v-0.74c-2.17,0-2.27-0.13-2.27-1.79V2.66h3.2c1.39,0,1.57,0.09,2.09,2.84h0.87l-0.56-3.85H252.82z"/>
		<path class="st3" d="M280.08,1.65V2.4c1.47,0,1.54,0.26,0.76,1.54l-3.89,6.12h-0.08l-4.02-6.2c-0.77-1.2-0.61-1.46,1.02-1.46V1.65
			h-5.36V2.4c0.94,0,1.15,0.2,2.06,1.57l4.8,7.2v4.89c0,1.67-0.14,1.8-2.19,1.8v0.75h6.4v-0.75c-2.04,0-2.17-0.14-2.17-1.79v-4.9
			l4.86-7.42c0.73-1.18,0.91-1.36,1.81-1.36V1.65H280.08z"/>
	</g>
</g>
</svg>
